<?xml version="1.0" encoding="utf-8"?>
<!-- Generator: Adobe Illustrator 16.0.0, SVG Export Plug-In . SVG Version: 6.00 Build 0)  -->
<!DOCTYPE svg PUBLIC "-//W3C//DTD SVG 1.1//EN" "http://www.w3.org/Graphics/SVG/1.1/DTD/svg11.dtd">
<svg version="1.1" id="Layer_1" xmlns="http://www.w3.org/2000/svg" xmlns:xlink="http://www.w3.org/1999/xlink" x="0px" y="0px"
	 width="134.75px" height="40px" viewBox="0 0 134.75 40" enable-background="new 0 0 134.75 40" xml:space="preserve">
<g>
	<path fill-rule="evenodd" clip-rule="evenodd" fill="#DD2E27" stroke="#DD2E27" stroke-width="0.2268" stroke-miterlimit="10" d="
		M15.329,10.41c-3.412-1.629-9.498,0.522-9.928,4.702c-0.031,2.858,1.506,7.285,1.629,9.312c0.338,1.752-0.093,3.442,0.031,5.193
		c-0.031,2.891,0.276,4.919,2.427,6.517c-4.149-2.397-5.747-5.193-5.225-8.236c0.522-2.306,0.461-3.474-0.153-5.256
		C2.174,16.035,2.605,11.363,5.248,9.581C8.905,7.275,12.777,7.46,15.329,10.41L15.329,10.41z"/>
	<path fill-rule="evenodd" clip-rule="evenodd" fill="#DD2E27" stroke="#DD2E27" stroke-width="0.2268" stroke-miterlimit="10" d="
		M21.752,10.779c4.149-1.106,6.577-0.4,6.976,4.179c0,1.568-0.399,3.258-1.291,5.409c-0.799,1.537-1.198,3.38-1.475,6.577
		c-0.184,6.607-1.229,9.835-4.518,9.618c3.535,1.139,5.901-1.413,6.669-5.868c0.215-1.291,0.492-6.454,1.844-9.498
		c2.828-6.361,2.397-9.957,0.369-11.432C28.605,8.197,24.056,8.228,21.752,10.779L21.752,10.779z"/>
	<path fill-rule="evenodd" clip-rule="evenodd" fill="#5FBB46" d="M17.879,8.043c1.198-3.042,1.937-4.764,4.548-7.222
		c0.492,0.214,1.137,0.184,1.967-0.093l0.769,0.338c-1.938,2.029-4.488,3.781-5.256,7.008c0.861,0.122,1.506-0.185,1.937-0.861
		c0.092,0.553-0.092,1.014-0.554,1.322c0.891-0.124,1.844-0.492,2.919-1.26c-0.368,1.106-1.413,1.659-2.889,1.905
		c0.215,0.308,0.737,0.339,1.414,0.216c-1.015,1.26-2.644,1.26-4.548,0.615c-2.459,0.829-3.627-0.554-4.088-3.167
		c0.646,0.769,1.291,1.476,2.028,1.598c-0.553-0.737-0.461-1.414-0.215-2.059C16.158,7.367,16.65,8.104,17.879,8.043L17.879,8.043z"
		/>
	<path fill="#DD2E27" d="M40.284,24.302v2.643c-0.799-0.552-1.783-0.829-2.919-0.829c-0.984,0-1.752,0.152-2.305,0.522
		c-0.523,0.368-0.799,0.891-0.799,1.537c0,1.32,1.014,1.967,3.073,1.967h4.149v-5.625c0-2.366-1.229-3.565-3.719-3.565h-5.01v-2.459
		h5.164c2.029,0,3.595,0.461,4.702,1.414c1.076,0.922,1.628,2.274,1.628,4.057V32.6h-7.007c-1.783,0-3.196-0.368-4.241-1.106
		c-1.044-0.769-1.567-1.846-1.567-3.289c0-1.413,0.553-2.521,1.659-3.258c1.107-0.737,2.49-1.106,4.18-1.106
		C38.194,23.84,39.208,23.994,40.284,24.302L40.284,24.302z M46.154,39.3V25.53c0-1.014,0.214-1.967,0.614-2.858
		c0.399-0.922,0.953-1.689,1.629-2.335c0.707-0.676,1.506-1.198,2.458-1.567c0.922-0.369,1.937-0.583,3.012-0.583
		c1.076,0,2.06,0.214,2.981,0.583c0.953,0.369,1.751,0.891,2.458,1.567c0.708,0.676,1.26,1.445,1.66,2.335
		c0.4,0.892,0.584,1.845,0.584,2.858c0,1.047-0.184,1.998-0.584,2.889c-0.368,0.892-0.921,1.66-1.598,2.336
		c-0.706,0.646-1.505,1.168-2.458,1.568c-0.953,0.368-1.967,0.553-3.043,0.553c-1.353,0-2.582-0.276-3.75-0.861v-2.643
		c1.045,0.707,2.243,1.046,3.658,1.046c0.737,0,1.444-0.124,2.059-0.369c0.614-0.245,1.137-0.585,1.567-1.015
		c0.43-0.432,0.769-0.951,0.984-1.536c0.214-0.585,0.337-1.261,0.337-1.968s-0.123-1.352-0.337-1.936
		c-0.215-0.614-0.554-1.106-0.984-1.537c-0.399-0.43-0.923-0.769-1.506-1.013c-0.614-0.247-1.291-0.37-2.028-0.37
		c-0.737,0-1.414,0.092-1.997,0.337c-0.584,0.246-1.107,0.583-1.537,1.015c-0.43,0.431-0.769,0.923-0.984,1.536
		c-0.246,0.586-0.369,1.26-0.369,1.967V39.3H46.154z M73.784,18.493v2.459h-5.563c-0.584,0-1.106,0.123-1.567,0.337
		c-0.43,0.215-0.646,0.522-0.646,0.892c0,0.246,0.031,0.461,0.154,0.645c0.091,0.187,0.215,0.339,0.369,0.462
		c0.123,0.124,0.337,0.246,0.615,0.368c0.276,0.124,0.491,0.216,0.676,0.245c0.153,0.063,0.798,0.249,1.966,0.616
		c1.199,0.338,2.06,0.646,2.613,0.892c0.584,0.215,1.014,0.552,1.32,0.952c0.308,0.399,0.492,0.769,0.584,1.168
		c0.063,0.369,0.124,0.768,0.124,1.138c0,2.612-1.936,3.934-5.778,3.934h-5.439v-2.458h5.439c1.967,0,2.95-0.494,2.95-1.476
		c0-0.491-0.307-0.86-0.859-1.198c-0.584-0.308-1.292-0.555-2.122-0.769c-0.828-0.214-1.658-0.462-2.488-0.769
		c-0.83-0.276-1.506-0.737-2.09-1.383c-0.583-0.616-0.86-1.414-0.86-2.367c0-1.198,0.491-2.09,1.475-2.735
		c0.983-0.646,2.182-0.953,3.565-0.953H73.784z M80.113,32.6h-2.766V20.952h-2.581l1.261-2.459h4.086V32.6z M77.226,15.542
		c-0.276-0.338-0.4-0.676-0.4-1.076c0-0.399,0.124-0.737,0.4-1.076c0.276-0.337,0.706-0.49,1.26-0.49
		c0.553,0,0.983,0.153,1.261,0.49c0.274,0.339,0.399,0.677,0.399,1.076c0,0.4-0.125,0.738-0.399,1.076
		c-0.277,0.308-0.708,0.492-1.261,0.492C77.932,16.035,77.502,15.85,77.226,15.542L77.226,15.542z M81.221,20.952l5.623-5.255v2.796
		h4.242v2.459h-4.242v6.054c0,0.708,0.124,1.261,0.368,1.723c0.248,0.429,0.587,0.767,1.047,0.951
		c0.461,0.186,0.891,0.308,1.322,0.369c0.399,0.061,0.89,0.093,1.505,0.093V32.6c-2.397,0-4.18-0.432-5.316-1.291
		c-1.17-0.861-1.752-2.305-1.752-4.303v-6.054H81.221z M99.938,18.186c3.565,0.153,5.347,1.536,5.347,4.148
		c0,3.289-2.304,4.918-6.884,4.918h-1.292v-2.274h1.507c1.414,0,2.367-0.185,2.92-0.584s0.831-1.075,0.831-2.029
		c0-0.614-0.247-1.045-0.739-1.352c-0.491-0.306-1.105-0.461-1.843-0.461c-1.506,0-2.676,0.494-3.505,1.476
		c-0.859,0.984-1.291,2.151-1.291,3.503c0,1.476,0.462,2.645,1.383,3.534c0.923,0.893,2.091,1.354,3.566,1.354
		c1.321,0,2.396-0.309,3.227-0.923l1.875,1.754c-1.443,1.104-3.135,1.627-5.102,1.627c-2.398,0-4.303-0.645-5.717-1.967
		c-1.414-1.292-2.151-2.981-2.151-5.071c0-2.305,0.706-4.181,2.122-5.624C95.604,18.8,97.509,18.125,99.938,18.186L99.938,18.186z
		 M117.18,29.495l1.904,1.754c-1.443,1.104-3.104,1.627-4.979,1.627c-2.305,0-4.18-0.675-5.595-2.089
		c-1.382-1.415-2.089-3.135-2.089-5.257c0-2.059,0.738-3.78,2.213-5.194c1.475-1.444,3.288-2.15,5.471-2.15
		c1.875,0,3.535,0.553,4.979,1.659l-1.874,1.75c-0.861-0.613-1.906-0.92-3.104-0.92c-1.445,0-2.582,0.429-3.441,1.322
		c-0.831,0.892-1.261,2.09-1.261,3.533c0,1.476,0.43,2.674,1.261,3.565c0.859,0.892,1.996,1.322,3.441,1.322
		C115.336,30.418,116.349,30.109,117.18,29.495L117.18,29.495z M122.987,12.038v6.455h2.673c2.306,0,3.995,0.308,4.979,0.953
		c0.923,0.583,1.476,1.261,1.721,2.058c0.246,0.8,0.369,1.844,0.369,3.136v7.96h-2.766v-7.93c0-0.368-0.03-0.645-0.03-0.891
		c-0.031-0.246-0.093-0.584-0.216-0.954c-0.124-0.367-0.307-0.706-0.553-0.951c-0.215-0.246-0.553-0.462-0.984-0.646
		c-0.461-0.183-0.983-0.276-1.628-0.276h-3.565V32.6h-2.767V12.038H122.987z"/>
	<path fill="#DD2E27" d="M22.397,28.666l2.305,2.121c-1.783,1.352-3.781,1.996-6.055,1.996c-2.858,0-5.132-0.829-6.854-2.55
		c-1.69-1.723-2.551-3.841-2.551-6.394c0-2.521,0.892-4.64,2.705-6.392c1.782-1.722,4.025-2.582,6.7-2.582
		c2.274,0,4.272,0.676,6.055,1.998l-2.274,2.151c-1.076-0.769-2.336-1.137-3.78-1.137c-1.783,0-3.166,0.522-4.211,1.628
		c-1.044,1.076-1.567,2.521-1.567,4.333c0,1.783,0.523,3.228,1.567,4.303c1.045,1.107,2.428,1.63,4.211,1.63
		C20.123,29.772,21.383,29.403,22.397,28.666L22.397,28.666z"/>
</g>
</svg>
